<svg xmlns="http://www.w3.org/2000/svg" width="265.1" height="366.096" viewBox="0 0 265.1 366.096">
  <g id="Group_1" data-name="Group 1" transform="translate(-828 -357.434)">
    <path id="Path_379" data-name="Path 379" d="M721.9-437.8c-.7,1.8-3.4,7.8-5.9,13.3-7.2,15.2-7.1,14.5-.8,14.5a42.174,42.174,0,0,1,9.2,1.1c3.1.8,4.1.8,4.7-.3,1.5-2.3.9-13.1-1-20.3C724.4-442.9,724.1-443.2,721.9-437.8Z" transform="translate(218 798.515)"/>
    <path id="Path_380" data-name="Path 380" d="M677-432.5c0,.3-.9,4.7-2,9.8-11,51.5-14.7,109.7-8.4,133.2,4.6,17.4,14.6,30.3,29.3,37.9,7.6,3.9,18.5,7.5,22.9,7.6,2.8,0-1.7-18.6-6.5-26.8-1.3-2.4-2.2-4.7-1.8-5,1.2-1.2,6.4,6,8.6,11.7,3.8,10.2,3.5,35.1-.7,52.6-2.1,9-2,9,3.9,10.8,11.2,3.3,10.5,3.6,11.2-4.1,1.8-18.9,5.4-30.5,11.7-37.6,5.6-6.4,10.8-9,18.3-9,6.5-.1,13.5,1.1,13.5,2.2,0,.4-2.5.8-5.6.9-20.8.9-26.8,18.2-15.8,45.8l2.7,6.6,11.6-.6c6.4-.4,16.1-1.3,21.5-2.1,5.5-.8,10.1-1.2,10.4-1,.6.7-15.2,5.4-26.3,7.8-13.8,3-40.8,3.2-50.5.4-18.9-5.5-32-16-41.4-33.2-14.7-26.7-20.2-33.9-28.2-37-6.4-2.4-6.9-1.6-6.9,11.9.2,27.9,13.2,53,36.5,69.8,16.8,12.2,48.4,19.9,76.5,18.6,40.7-1.8,67.9-19.8,79.1-52.2,2.6-7.5,2.8-9,2.8-25.5.1-16.6-.1-17.9-2.6-24.8-8.6-23.2-26-37.2-67.3-54.2-29.7-12.3-40.3-18.5-45.6-26.9-1.5-2.4-1.6-2.4-4.5-.7-5.8,3.5-9.4,10-12,22.1-.6,2.7-.7,2.8-1.4,1-1.4-3.4-1.1-12.9.7-18.1,3-9.2,8.9-15.3,24-25,7.3-4.7,10.6-7.4,11.7-9.9,3-6.2,1.3-15.5-2.9-15.5-4.4,0-9.3-2.9-12.2-7.2-3.8-5.7-8.9-7.1-22.8-6.4l-10,.5-3.8-7.9C690.2-421.2,677-436.5,677-432.5Z" transform="translate(218 798.515)"/>
    <path id="Path_421" data-name="Path 421" d="M690.7-243.8a79.46,79.46,0,0,1-.4,12.6c-.8,6.1-.7,7.7.7,10,1.8,2.8,9.7,10.2,11.1,10.2.4,0,1-3.7,1.4-8.3a126.888,126.888,0,0,1,2.6-15.6c1.1-4.1,1.9-7.5,1.9-7.6,0-.2-1.7-.6-3.7-1a44.878,44.878,0,0,1-8.5-3.1,44.544,44.544,0,0,0-5.2-2.4C690.4-249,690.4-246.6,690.7-243.8Z" transform="translate(218 798.515)"/>
    <path id="Path_537" data-name="Path 537" d="M610-116.5V-101h10.1c8.6,0,10.5-.3,13-2.1,3.6-2.6,4-8.1.9-11.5-2-2-2-2.3-.5-5.5,3.7-7.7-1.8-11.9-15.5-11.9h-8Zm16.1-8.5c4.5,2.4.5,6.3-5.8,5.8-3.3-.3-3.7-.6-3.6-3.1.1-1.5.1-2.9.2-3.2C617.1-126.4,624.1-126,626.1-125Zm2.4,15c0,2.4-.4,2.5-6,2.8-6.1.3-6.1.3-6-2.5,0-3.2,2.6-4.2,8.5-3.3C627.9-112.6,628.5-112,628.5-110Z" transform="translate(218 798.515)"/>
    <path id="Path_538" data-name="Path 538" d="M642-116.5V-101h10.9c6.3,0,11.2-.4,11.6-1a5.038,5.038,0,0,0,0-3c-.6-1.8-1.5-2-8.1-2H649v-25h-7Z" transform="translate(218 798.515)"/>
    <path id="Path_539" data-name="Path 539" d="M675.5-120.8c-2.5,6.2-5,12.1-5.6,13.1a45.442,45.442,0,0,0-1.9,4.3c-.9,2.3-.7,2.4,2.6,2.4,3.1,0,3.7-.4,5-3.5,1.4-3.5,1.5-3.5,7.8-3.5h6.5l1.2,3.5c1.1,3,1.7,3.5,4.6,3.5,1.8,0,3.3-.5,3.3-1.1,0-1-2.5-7.2-9.3-22.6-3-6.8-3.4-7.3-6.4-7.3S680.1-131.7,675.5-120.8Zm10.9,4.5c.7,2.1.4,2.3-2.8,2.3-4.1,0-4.2-.5-2-5.8l1.5-3.7,1.3,2.5A22.781,22.781,0,0,1,686.4-116.3Z" transform="translate(218 798.515)"/>
    <path id="Path_540" data-name="Path 540" d="M711-129.7a16.179,16.179,0,0,0-7.4,13.7,14.636,14.636,0,0,0,8.3,13.7c5.2,2.7,9.9,2.9,14.4.7,5.7-2.9,6-3.4,3.6-6-2-2.1-2.4-2.2-4.3-.9a12.177,12.177,0,0,1-5.9,1.5c-5.4,0-8.7-3.5-8.7-9.2.1-4.6,1.2-6.8,4.7-8.6a8.516,8.516,0,0,1,9.2.4c2.2,1.6,2.4,1.5,4.9-.9l2.5-2.5-3.4-2.1C724.1-132.9,715.5-132.8,711-129.7Z" transform="translate(218 798.515)"/>
    <path id="Path_541" data-name="Path 541" d="M738-129.3c-.1,6.9-.2,25-.1,26.5.1,1.3.9,1.8,3.1,1.8,2.8,0,3-.2,3-3.8s2.2-8.2,4-8.2c.5,0,2.8,2.7,5.1,6,3.9,5.6,4.5,6,8,6,2.2,0,3.9-.3,3.9-.6a79.915,79.915,0,0,0-6-8.5,84.736,84.736,0,0,1-6-8.4c0-.3,2.5-3.1,5.5-6.3,3-3.1,5.5-6,5.5-6.5,0-.4-1.5-.7-3.4-.7-2.9,0-4.2.9-8.9,6.1-3.1,3.3-5.9,5.9-6.4,5.7-.4-.2-.9-1.7-.9-3.3-.4-9-.2-8.5-3.4-8.5C738.4-132,738-131.6,738-129.3Z" transform="translate(218 798.515)"/>
    <path id="Path_542" data-name="Path 542" d="M789.7-129.8c-11.4,6.7-9.5,24.4,3.2,28.7,4.9,1.6,7.9,1.4,12.8-1,4.7-2.3,5.3-3.7,2.6-6.2-1.6-1.3-2-1.4-3.7-.1-3.2,2.3-9.9,1.8-12.4-.9a10.1,10.1,0,0,1-1.8-11.5c2.7-5.2,7.4-6.6,13-3.7,2.6,1.4,3.1,1.4,4.8-.1,2.5-2.3,2.3-3.1-1.4-5.4C802.3-132.7,794.7-132.6,789.7-129.8Z" transform="translate(218 798.515)"/>
    <path id="Path_543" data-name="Path 543" d="M824.1-125.8c-1.3,3.5-3.3,8.3-4.4,10.8-3.4,7.6-5.7,13.1-5.7,13.6,0,.2,1.5.4,3.3.4,2.8,0,3.6-.5,4.8-3.3,1.4-3.1,1.6-3.2,8.1-3.5l6.6-.3,1.2,3.6c1,3.1,1.5,3.5,4.6,3.5,1.9,0,3.4-.3,3.4-.8,0-.4-2.8-7.2-6.3-15.2-6.2-14.4-6.3-14.5-9.7-14.8S826.5-132,824.1-125.8Zm7.7,6.3c2,4.4,1.5,5.5-2.3,5.5-1.9,0-3.5-.2-3.5-.5,0-1.1,3.4-7.5,4-7.5C830.4-122,831.2-120.9,831.8-119.5Z" transform="translate(218 798.515)"/>
    <path id="Path_544" data-name="Path 544" d="M849.2-128.8c.2,1.8.9,3.4,1.6,3.4.6.1,2.8.2,4.7.3l3.5.1v23.8l3,.4c1.6.2,3.1,0,3.3-.6a96.956,96.956,0,0,0,.3-11.9c-.1-6,.3-11.2.8-11.5a13.635,13.635,0,0,1,4.5-.6c3.3-.1,3.6-.4,3.9-3.4l.3-3.2H848.9Z" transform="translate(218 798.515)"/>
    <path id="Path_551" data-name="Path 551" d="M666.3-86.3c-2.7.5-4.8,2.9-3.3,3.8.5.3,1,.2,1-.4,0-2.8,14.3-4.1,17.6-1.6,1.9,1.5,1.9,1.5,0,3-2.6,2-10.4,2.1-8.7.2.6-.8.8-1.7.5-2-.7-.7-3.7,2.8-4.7,5.5-.3,1-.2,2,.3,2.3s1.1-.4,1.5-1.5,1.1-1.8,1.6-1.4c3,1.8,12.9-1.8,12.9-4.6C685-86,674.2-87.8,666.3-86.3Z" transform="translate(218 798.515)"/>
    <path id="Path_552" data-name="Path 552" d="M756.5-83c-.3.5-.1,1,.4,1a1.1,1.1,0,0,0,1.1-1c0-.6-.2-1-.4-1C757.3-84,756.8-83.6,756.5-83Z" transform="translate(218 798.515)"/>
    <path id="Path_553" data-name="Path 553" d="M691.5-79.7c-4,2.4-4.3,4.8-.3,2.6,1.2-.7,5.3-1.4,9-1.5,5.5-.2,6.6,0,6.1,1.2-.9,2.4,2.7,2.8,10.1,1,3.9-1,7.7-2,8.5-2.3,1-.4,1.2-.1.8,1.1-.7,1.8,1.7,2.3,2.8.6.5-.8,1.1-.7,2,0,1,.8,1.9.8,3.5,0,1.8-.9,2.4-.8,3.3.5,1.1,1.4,1.7,1.4,7.1-.5,8.4-2.8,11.7-2.5,8.4.8-1.7,1.7.1,1.6,4.9-.2a51.586,51.586,0,0,1,7.7-2.1c3.2-.5,3.8-.4,3.3.9-.8,2.1.8,2.9,3.4,1.6,1.4-.8,2.5-.8,3.1-.2.7.7,3.2.4,7.6-.9,8.3-2.3,11.4-2.5,10.6-.4-.7,1.7,1.1,2.1,2.1.5.5-.8,1.1-.7,2,0,1,.8,1.9.8,3.4.1,2.5-1.4,4.4-1.4,3.6-.1-1.1,1.8,2.1,2.1,6,.5a55.691,55.691,0,0,1,7.9-2.5l4.1-.8-3.6-.1a25.843,25.843,0,0,0-7.9,1.4c-5.2,1.8-5.1,1.8-4.4.2.4-1-1.7-1.4-9.3-1.5-9-.2-12.5.3-17.7,2.4-1.6.6-1.8.4-1.3-1,.6-1.5.3-1.7-1.7-1.2a34.938,34.938,0,0,0-4.2,1.3c-1.2.4-1.5.3-1-.5.9-1.4-3.7-1.5-10.4-.2-2.7.5-4.6.5-4.8-.1-.5-1.4-7.5-1.1-12.2.6-5.3,1.9-5.3,1.9-4.5-.4.5-1.8.3-1.9-2.4-1.1a28.964,28.964,0,0,1-7.5.4,31.18,31.18,0,0,0-9.9,1C712.1-76.4,708-75.8,708-77c0-.5.9-1,2-1s2-.4,2-.9c0-1.7-5.5-2.2-10.6-1.1-3.4.8-5,.8-5.2.1C695.7-81.3,694-81.2,691.5-79.7Z" transform="translate(218 798.515)"/>
  </g>
</svg>
