<svg xmlns="http://www.w3.org/2000/svg" width="156.316" height="166.38" viewBox="0 0 156.316 166.38">
  <path id="Path_6" data-name="Path 6" d="M2592.5-1370a83.32,83.32,0,0,0-64.7,45.5c-5.6,10.9-7.8,19.8-8.5,33.5-.9,18.3,3.4,34.3,13.3,49.1,22.4,33.8,63.7,46.6,101,31.5,19.4-7.9,32.8-21.3,39.1-39.2,2.5-7,2.8-9.3,2.8-19.9-.1-9.9-.5-13.1-2.4-18.5-3.7-10.4-9.8-19.8-18.7-28.8-7.9-7.8-11.4-9.9-11.4-6.8a18.858,18.858,0,0,1-1,4.2l-1,2.6-3-4c-2.5-3.5-5.7-6.2-7.3-6.2-.3,0-.7,1.1-1.1,2.3-1,4-4.6,7.6-10.5,10.7-12.1,6.2-16.5,14.4-14.2,26.5.9,4.5.7,5.3-1.5,8.6-4.2,6.1-3.2,8.5,5.6,13,7.2,3.7,14.7,3.3,24.3-1.3,4.2-2,7.7-3.4,7.7-3-.1,1.5-10.4,7.6-15.8,9.5-8.5,2.9-18.2,3.2-31.6,1.2-15.6-2.4-24.3-1.7-33.1,2.5a52.086,52.086,0,0,0-9.9,6.1c-4,3.4-4.1,3.3-8.5-6.4-5.7-12.4-7.4-21.3-6.9-36.1.4-11,.9-14.2,3.1-19.8,11-28.5,37.5-45.7,71-46.1,15.3-.2,27.2,2.8,42.6,10.5,6.3,3.2,11.6,5.6,11.8,5.4.6-.6-11.9-11-17.2-14.4A86.158,86.158,0,0,0,2592.5-1370Z" transform="translate(-2519.184 1370.506)"/>
</svg>
