<svg xmlns="http://www.w3.org/2000/svg" width="306.932" height="96.627" viewBox="0 0 306.932 96.627">
  <g id="Group_1" data-name="Group 1" transform="translate(-5122.068 -532.388)">
    <path id="Path_178" data-name="Path 178" d="M2546.6-736.8a78.368,78.368,0,0,0-2.1,11.5c-.6,5.8-.9,6.2-3.3,6.5-1.6.2-2.8,1-3,2-.3,1.4.3,1.8,2.7,1.8,3.1,0,3.1,0,3.1,5.3,0,5.8,1.7,16.8,2.8,17.9a1.646,1.646,0,0,0,1.9,0c1-.6,1-2.3.3-6.7a95.531,95.531,0,0,1-1-11.8V-716h5c3.6,0,5-.4,5-1.4,0-.9-1.7-1.6-5-2.1l-5-.7.5-5.1c.4-2.9,1.1-7.3,1.7-9.9C2551.9-743.4,2548.8-744.8,2546.6-736.8Z" transform="translate(2669 1274.515)"/>
    <path id="Path_180" data-name="Path 180" d="M2480.7-736.6c-12.7,4.6-26.1,20.3-27.5,32.2-.4,3.5,0,4.6,2.8,7.7,3.9,4.5,9.2,6.1,17.8,5.4,5.1-.4,8.5-1.5,17-5.8,5.8-3,10.7-6,11-6.6.8-2.8-3-2.3-8.5,1-14.3,8.6-27.9,10.1-34.3,3.7-2.7-2.7-2.5-6,.8-12.8,6.2-12.8,19.1-22.2,30.3-22.2,3.2,0,6.1.4,6.4,1,1,1.6,4.5,1.2,4.5-.5C2501-737.5,2488.6-739.4,2480.7-736.6Z" transform="translate(2669 1274.515)"/>
    <path id="Path_181" data-name="Path 181" d="M2585.5-736.8c-.3.7-.4,10.6-.3,21.8.3,19.7.4,20.5,2.3,20.5,1.5,0,2.7-1.8,5.2-7.5,3.9-9,7.6-14,9.2-12.4.7.6,1.5,5.5,1.9,11,.6,8.6.9,9.9,2.6,10.2,1.8.4,1.9-.2,1.4-9.6-.7-11.6-2.1-15.6-5.9-16-4-.5-11.3,7.8-12.1,13.7-.1.9-.5-6-.8-15.3-.4-12.3-.8-17.1-1.7-17.4A1.521,1.521,0,0,0,2585.5-736.8Z" transform="translate(2669 1274.515)"/>
    <path id="Path_201" data-name="Path 201" d="M2519.8-720.8c-1.4,1.8-3.3,4.8-4.4,6.6a13.717,13.717,0,0,1-6.1,5.2c-4.8,2.1-6.2,5.7-1.8,4.6,3-.8,3.1-.2.4,6.2-2.1,5.1-2,8.7.3,8,.6-.2,2.1-3.1,3.3-6.4,3.2-8.8,4.1-10.1,7.6-10.8,3.9-.7,4.1-.5,6.4,8.3,2,7.6,2.5,8.3,4.4,7.1,1.2-.7.9-3-2.2-14.2-2-7.4-3.4-14.3-3.1-15.6C2525.5-725.2,2522.7-724.6,2519.8-720.8Zm1.3,8.1c-1.3,1.3-2.6.3-1.6-1.2a1.282,1.282,0,0,1,1.7-.5C2521.8-714,2521.8-713.4,2521.1-712.7Z" transform="translate(2669 1274.515)"/>
    <path id="Path_202" data-name="Path 202" d="M2690-721.2c-3.7,1.8-4.9,4.4-3.1,6.6.7.8,4.5,1.6,9.2,2a64.377,64.377,0,0,1,11.6,2l3.6,1.2-2.3,2.1c-2.4,2.3-11.6,6.9-19.5,9.8-6.2,2.3-7.3,3.1-5.8,4.6,2.3,2.3,25.4-7.8,29.2-12.7,5-6.4,1.1-9.1-15.9-11a28.789,28.789,0,0,1-5.8-.9c-.2-.2,1.6-.7,4-1.2,2.8-.6,4.4-1.4,4.6-2.6C2700.3-723.6,2694.7-723.6,2690-721.2Z" transform="translate(2669 1274.515)"/>
    <path id="Path_203" data-name="Path 203" d="M2619.9-718.3c-8.4,7.1-7.8,20.2,1.1,24.8,3.7,1.9,12.3,1.9,16,0,7.5-3.9,8-12.7,1.1-18.9a6.052,6.052,0,0,1-2.1-3.5c0-2.3-5.1-5.1-9.3-5.1A10.519,10.519,0,0,0,2619.9-718.3Zm12.1,6c10.6,8.7,8.9,16.3-3.6,16.3-10.7,0-14.3-12.7-5.6-19.8C2625.1-717.6,2625.7-717.4,2632-712.3Z" transform="translate(2669 1274.515)"/>
    <path id="Path_204" data-name="Path 204" d="M2719-718.4c-1.3,3.3-1.3,3.3.6,5.1,1.1,1.1,1.4,2.6.9,5.3-.5,2.9-.3,3.9.9,4.3,1.8.7,2.1,3.8.6,5.3-.8.8-.6,1.5.5,2.4a4.159,4.159,0,0,1,1.5,2.6c0,2.4,2,2.5,3.1.1s1.4-2.5,17-3.2c15-.7,15.9-.8,15.9-2.7,0-2-.4-2-16.3-1.3-14.7.7-16.5.6-17-.9-.9-2.2,0-2.4,11.1-2.8,8.5-.4,12.6-1.7,10.9-3.5-.4-.3-5.7-.5-11.7-.4-11.7.2-11.7.2-12.2-4.8-.4-2.9,0-3,16-3.8,10.5-.5,12.2-.8,12-2.2-.4-2.1-13.4-2.7-22.7-1.1-4.5.8-6.7.8-7.4.1C2721-721.6,2720-721.2,2719-718.4Z" transform="translate(2669 1274.515)"/>
    <path id="Path_206" data-name="Path 206" d="M2673.2-718.7c-.5.6-1.2,3.8-1.4,7-.6,6.9-3,10.6-8.2,12.6-3.5,1.3-3.9,1.3-5.9-.8-1.8-1.8-2.3-3.5-2.6-10.6-.2-6.1-.7-8.5-1.6-8.5-1.9,0-2.5,2.4-2.5,9.3,0,11.2,5.2,17.1,12.9,14.8,7.6-2.2,12.1-9.5,12.1-19.4C2676-719.1,2674.9-720.8,2673.2-718.7Z" transform="translate(2669 1274.515)"/>
    <path id="Path_239" data-name="Path 239" d="M2509-651.4c0,3.6.4,5.3,1.1,4.9a1.932,1.932,0,0,0,.5-2.2,3.066,3.066,0,0,1,.5-2.9,3.889,3.889,0,0,0,.4-3.4C2510.3-658.8,2509-657,2509-651.4Z" transform="translate(2669 1274.515)"/>
    <path id="Path_240" data-name="Path 240" d="M2515-654c-.7,1.6-1.6,2.7-2.1,2.4s-.9.2-.9,1c0,2.1,1.7,2,2.9-.2.9-1.4,1-1.1,1.1,1.7,0,4.7.7,3.6,1.3-2.1C2517.9-656.8,2516.7-658.2,2515-654Z" transform="translate(2669 1274.515)"/>
    <path id="Path_241" data-name="Path 241" d="M2523.4-655.7a16.638,16.638,0,0,0-.2,5.3c.3,3.4.6,3.9,2.8,3.9,2.3,0,2.5-.3,2.5-5,0-4.4-.3-5-2.3-5.3A2.6,2.6,0,0,0,2523.4-655.7Zm4.6,4.3c0,3.8-.3,4.5-1.7,4.2-3.2-.6-3-8.8.2-8.8C2527.6-656,2528-654.9,2528-651.4Z" transform="translate(2669 1274.515)"/>
    <path id="Path_242" data-name="Path 242" d="M2535-651.5c0,4.9.2,5.5,2,5.5,2.5,0,4.3-4.2,3.5-8.2-.5-2.1-1.2-2.8-3.1-2.8C2535.2-657,2535-656.7,2535-651.5Zm3.8-.3c-.4,5.9-2.8,6.3-2.8.4,0-3.5.4-4.6,1.6-4.6S2539-655.1,2538.8-651.8Z" transform="translate(2669 1274.515)"/>
    <path id="Path_243" data-name="Path 243" d="M2546-651.5c0,5.4.1,5.5,2.8,5.4,2.3-.2,2.4-.2.5-.6-1.4-.3-2.3-1.2-2.3-2.3s.9-2,2.3-2.3l2.2-.4-2.2-.2c-1.6-.1-2.3-.7-2.3-2a2.467,2.467,0,0,1,2.3-2.4c1.9-.4,1.8-.4-.5-.6C2546.1-657,2546-656.9,2546-651.5Z" transform="translate(2669 1274.515)"/>
    <path id="Path_244" data-name="Path 244" d="M2556-652.1c0,2.8.5,5.1,1,5.1.6,0,1-.8,1-1.8,0-1.4.3-1.3,1.8.6,1.8,2.3,1.8,2.3,1.7-3,0-5-.1-5.3-2.7-5.6C2556.1-657.1,2556-657,2556-652.1Zm4.8-1.7a1.859,1.859,0,0,1-1.3,2.1c-1.1.5-1.5,0-1.5-1.9C2558-656.4,2560.3-656.5,2560.8-653.8Z" transform="translate(2669 1274.515)"/>
    <path id="Path_245" data-name="Path 245" d="M2567.7-656.4c-1.2,1.2-.8,9.4.4,9.4.7,0,.9-1.1.5-3-.7-3.8.7-3.2,2.4,1,1.9,4.6,3,3.6,3-2.6,0-3.4-.4-5.3-1-4.9-.6.3-.8,1.7-.6,3.1.7,3.4-1.2,3-2.7-.7C2569.1-655.8,2568.2-656.8,2567.7-656.4Z" transform="translate(2669 1274.515)"/>
    <path id="Path_246" data-name="Path 246" d="M2586.4-655.7a16.638,16.638,0,0,0-.2,5.3c.3,3.4.6,3.9,2.7,3.9a3.219,3.219,0,0,0,2.9-1.5c.4-1.2.2-1.3-.9-.3-2.5,2.4-3.9,1.5-3.9-2.6,0-4.5,1.3-5.9,3.7-3.9,1.4,1.1,1.6,1.1,1.1-.2C2591.2-657,2587.1-657.5,2586.4-655.7Z" transform="translate(2669 1274.515)"/>
    <path id="Path_247" data-name="Path 247" d="M2598.1-654.5a31.842,31.842,0,0,0-1.8,6c-.5,2.8-.4,2.9.9,1.1,1.3-1.7,1.5-1.7,3.1-.1,1.6,1.5,1.7,1.5,1.6-.2a27.306,27.306,0,0,0-1.3-5.8l-1.3-4Zm1.5,4.2c-1.1,1.1-1.7-.4-.9-2.3.7-1.8.8-1.8,1.1-.1A3.443,3.443,0,0,1,2599.6-650.3Z" transform="translate(2669 1274.515)"/>
    <path id="Path_248" data-name="Path 248" d="M2606.8-656.3c.7.3,1.3,2.6,1.4,5.6l.1,5.2.4-4.5c.3-2.4.9-5,1.5-5.7.8-1,.4-1.3-1.8-1.2C2606.8-656.9,2606.1-656.6,2606.8-656.3Z" transform="translate(2669 1274.515)"/>
    <path id="Path_249" data-name="Path 249" d="M2623-651.4c0,3.6.4,5.3,1.1,4.9a1.781,1.781,0,0,0,.5-2.1c-.4-.9.3-1.8,1.7-2.4,1.7-.7,1.8-.9.5-.9a1.9,1.9,0,0,1-1.8-2,2.488,2.488,0,0,1,1.8-2.4c1-.3.6-.5-1-.6C2623.1-657,2623-656.9,2623-651.4Z" transform="translate(2669 1274.515)"/>
    <path id="Path_250" data-name="Path 250" d="M2633.4-652c.1,5.2.3,5.5,2.6,5.5s2.5-.3,2.6-5.5l.1-5.5-.6,5c-.4,3.5-1,5-2.1,5s-1.7-1.5-2.1-5l-.6-5Z" transform="translate(2669 1274.515)"/>
    <path id="Path_251" data-name="Path 251" d="M2644.9-654.3c0,1.6-.2,3.8-.3,5.1-.2,1.3.1,2.5.6,2.8.4.3.8-.5.8-1.8v-2.3l2.1,2.5c1.9,2.4,2,2.4,1.4.3a7.069,7.069,0,0,1,.5-4.3c1.4-2.5-.2-5-3.1-5C2645.5-657,2645-656.2,2644.9-654.3Zm3.9.5a1.859,1.859,0,0,1-1.3,2.1c-1.1.5-1.5,0-1.5-1.9C2646-656.4,2648.3-656.5,2648.8-653.8Z" transform="translate(2669 1274.515)"/>
    <path id="Path_252" data-name="Path 252" d="M2656.1-651.3c.1,4.9.3,5.3.8,2.3l.7-3.5,1.7,3.2a13.715,13.715,0,0,0,2.2,3.3c.3,0,.4-2.6.4-5.8-.2-5.3-.2-5.4-.8-1.7l-.6,4-1.4-3.3C2656.9-658,2656-657.5,2656.1-651.3Z" transform="translate(2669 1274.515)"/>
    <path id="Path_253" data-name="Path 253" d="M2668.3-651.5c0,3.3.2,4.5.4,2.7a30,30,0,0,0,0-6C2668.5-656.3,2668.3-654.8,2668.3-651.5Z" transform="translate(2669 1274.515)"/>
    <path id="Path_254" data-name="Path 254" d="M2674.7-656.2c.6.4,1.3,3,1.6,5.7l.3,5,.2-5.2c.2-4,.6-5.3,2-5.6.9-.3.1-.5-1.8-.6C2675.1-656.9,2674-656.6,2674.7-656.2Z" transform="translate(2669 1274.515)"/>
    <path id="Path_255" data-name="Path 255" d="M2684.2-652c.3,5.1.5,5.5,2.8,5.5,2.4,0,2.5-.3,2.6-5.5.1-4.7.1-4.8-.3-1-.7,7.7-3.3,8.2-4,.8C2684.6-658.5,2683.8-658.3,2684.2-652Z" transform="translate(2669 1274.515)"/>
    <path id="Path_256" data-name="Path 256" d="M2696.1-651.3c.1,4,.3,5,.8,3.3l.7-2.4,1.8,2.4c1.8,2.5,1.8,2.5,1.1.2a4.216,4.216,0,0,1,.5-3.7,3.35,3.35,0,0,0-2.6-5.5C2696.1-657,2696-656.7,2696.1-651.3Zm3.9-2.7c0,1.1-.7,2-1.5,2s-1.5-.9-1.5-2,.7-2,1.5-2S2700-655.1,2700-654Z" transform="translate(2669 1274.515)"/>
    <path id="Path_257" data-name="Path 257" d="M2707-651.5c0,5.4.1,5.5,2.8,5.4,2.3-.2,2.4-.2.5-.6-1.4-.3-2.3-1.2-2.3-2.3s.9-2,2.3-2.3l2.2-.4-2.2-.2c-1.6-.1-2.3-.7-2.3-2a2.467,2.467,0,0,1,2.3-2.4c1.9-.4,1.8-.4-.5-.6C2707.1-657,2707-656.9,2707-651.5Z" transform="translate(2669 1274.515)"/>
  </g>
</svg>
