<svg xmlns="http://www.w3.org/2000/svg" width="228.804" height="309.136" viewBox="0 0 228.804 309.136">
  <path id="Path_382" data-name="Path 382" d="M2595-408.1c0,1.5-15.1,24.3-18,27.1-.3.3-1.7,2.1-3.2,4.2-2.6,3.4-3.2,3.7-9,4.1-11.6.9-28.5,5.2-31.2,7.8-1.3,1.2-9.8,1.2-12.8,0-1.3-.5-6.1-2.1-10.8-3.6s-8.9-3.1-9.5-3.6a5.305,5.305,0,0,0-3.2-.9c-1.3,0-2.3-.5-2.3-1,0-.6-1-1-2.3-1a5.464,5.464,0,0,1-3.5-1.2c-.9-.9-1.3-.7-1.8.6a2.754,2.754,0,0,0,.5,2.9,7.181,7.181,0,0,1,1.1,4.1c0,5,2.8,16.5,5.1,21.5,2.9,5.9,9.6,14.4,13.3,16.5,2,1.2,2.6,2.1,2.1,3.4a54.955,54.955,0,0,0-3.3,20.9l.3,7.8,4.4.5c2.5.3,4.6,1.1,4.9,1.7.2.7-.1,1.3-.8,1.3-1.1,0-5.9,4.9-6,6.1,0,.3,4.6.9,10.3,1.2,11.5.8,24.7,3.5,25.4,5.3.2.7-1.7,3.4-4.3,6a124.01,124.01,0,0,0-8.8,10.4,52.247,52.247,0,0,1-4.8,5.8,1.879,1.879,0,0,0-.8,1.7,2.131,2.131,0,0,1-.8,1.7c-1.6.6-5.4,10.3-9.3,23.4-.5,1.7-.9,8.7-.9,15.7,0,11,.3,13.1,2.1,16.4,3,5.3,4.9,7.4,8.6,8.9,5.4,2.3,9.6,1.8,12.6-1.6,2.6-2.9,2.7-3.3,2.7-15.7,0-6.9.4-14,.9-15.7,5.1-17.1,7.8-21.9,18.6-33.1,6.9-7.2,14.8-12.7,25.2-17.6,9.1-4.4,10.5-4.9,16.3-6.7,10.8-3.2,10.8-3.2,8.9,6-2.5,12.5-4.1,17.3-8.7,26.7-5.7,11.6-11.6,14.9-23.6,13.2-7.7-1.1-13.1,0-14.7,3.1-.6,1.2-.9,4.5-.7,7.5.5,6.1,3.8,10.5,9.5,12.5,1.8.7,3.3,1.5,3.3,1.8,0,.9-20.4,14.2-29,19-13.5,7.5-16.1,12-17,29-.5,11-.6,11.5-2.7,11.8-1.3.2-2.3,0-2.3-.5a11.329,11.329,0,0,0-2.5-3.6,7.8,7.8,0,0,0-6-2.7c-1.9,0-3.5.4-3.5.9s-.9,1.1-2,1.4c-1.2.3-2.9,2.4-4,5-1.8,4-1.9,5-.8,8.3a11.258,11.258,0,0,0,10,7.8c1.8,0,11.6-1,21.8-2.2,25.7-3,60.9-4.4,79-3.2,8,.5,15.7,1,17.1,1,2,0,2.8.8,4.2,4.2,3.9,9.7,7.4,15.3,12.1,20.2,6.4,6.4,9.2,8.6,11.1,8.6.8,0,1.5.3,1.5.8,0,1.4,12.4,5.5,19.2,6.2,10.2,1.1,18.3-1.1,24.5-6.7,4.3-4,7.3-8.7,7.3-11.6,0-1.4.5-2.9,1-3.2.6-.3,1-2.8,1-5.6,0-2.7-.4-4.9-1-4.9-.5,0-1-1.4-1-3,0-1.7-.4-3-1-3-.5,0-1-.7-1-1.5,0-2.5-9.3-10.8-15.3-13.8a61.47,61.47,0,0,0-17.7-5.4,22.263,22.263,0,0,1-5.5-1.3c-1.1-.6-4.7-1.1-8-1.2l-6-.3.3-3.5c.4-4.4,3.7-11.2,7.2-14.8,4.1-4.1,7.9-7.2,9-7.2a.915.915,0,0,0,1-.8c0-.5,1.8-1.4,4-2.1a20.325,20.325,0,0,0,6.7-3.5c2.2-1.9,2.7-3.2,2.7-7.4.1-4.3-.3-5.6-2.5-7.8-8.3-8.3-30.9,3.2-43,21.9-2.1,3.3-3.9,6.6-3.9,7.4s-.4,1.2-.9.9c-.4-.3-1.2-3.8-1.5-7.7-.4-3.9-1.2-8-1.7-9-.5-1.1-1.3-2.8-1.9-3.9a10.389,10.389,0,0,1-1-3.2c0-.7-2.9-4.1-6.5-7.6L2621-216l4.5-5.6c5.7-6.9,8.4-12.7,11.7-24.9,1.7-6.6,1.8-30.9.1-32.7a4.6,4.6,0,0,1-1.3-3c0-1-.4-1.8-1-1.8a1.233,1.233,0,0,1-1-1.3c0-2.3-7-9.7-11.2-11.8a49.827,49.827,0,0,0-10.5-3.4c-3.6-.8-6.8-1.6-7.1-1.9-1.1-1.2,11.4-10.9,17.8-13.7,3.4-1.6,4.1-4.9,1-4.9-1.1,0-2-.4-2-.9s-1.2-1.1-2.7-1.3l-2.7-.3,4.5-4.2c2.4-2.4,3.8-4.3,3.2-4.3a1.442,1.442,0,0,1-1.3-1.5c0-2.2-3.7-8.3-8.7-14.6l-4.5-5.5-.2-14c-.3-14.6-1.3-23.4-2.7-23.4-.5,0-.9-.9-.9-1.9,0-2.8-7.5-15.5-9.4-15.9C2595.7-409,2595-408.7,2595-408.1Zm-.1,85.7a9.266,9.266,0,0,1,2.1,4.3c-.1,2.7-3.3,6-6.7,6.7-2.6.5-3.6.2-5.7-2.1-3.2-3.4-3.3-5.7-.4-9A6.764,6.764,0,0,1,2594.9-322.4Zm-47.4,11.9c3,3,3.1,5.4.4,8.9a6.09,6.09,0,0,1-5.4,2.6c-3.7,0-7.5-3.7-7.5-7.2,0-2.7,4.5-6.8,7.5-6.8A8.236,8.236,0,0,1,2547.5-310.5Zm30.5,12.3c0,.5-1.1,1.8-2.5,3-2.8,2.5-7,2.9-7.8.8-.8-1.9.1-2.6,3.4-2.6,1.5,0,3.1-.5,3.4-1C2575.2-299.2,2578-299.3,2578-298.2ZM2673.6-138a65.474,65.474,0,0,1,8.2,2c6.7,2.9,7.9,3.6,10,5.9,4.4,4.8,1.8,8.4-6,8.2-7.2-.1-17.2-5.2-21.5-10.9-1.8-2.4-3.3-4.8-3.3-5.3C2661-139.3,2666.2-139.2,2673.6-138Z" transform="translate(-2487.196 408.862)"/>
</svg>
