<svg xmlns="http://www.w3.org/2000/svg" width="400.738" height="424.851" viewBox="0 0 400.738 424.851">
  <g id="Group_1" data-name="Group 1" transform="translate(-4713.576 -1409.149)">
    <path id="Path_1100" data-name="Path 1100" d="M346.9-665.6c-9.6,2.6-18.9,9.8-27.8,21.5-9.1,12.1-18.5,28.6-15.6,27.5,1-.4,1.5,0,1.5,1.1,0,1.2-.6,1.6-2,1.2-1.6-.4-2.4.7-5.1,7.2-6.7,16-12.9,37.7-13.3,46.1-.1,2.5-.4,4.9-.8,5.5-.3.5-.9,4.5-1.3,8.7-.6,6.8-.5,7.8.9,7.8a1.561,1.561,0,0,1,1.6,1.5,1.538,1.538,0,0,1-1.5,1.5,1.453,1.453,0,0,0-1.5,1.4c0,.7-3.8,4.4-8.4,8.2-4.7,3.8-8.5,7.5-8.5,8.1a1.493,1.493,0,0,1-1.4,1.3c-1.7,0-18.7,16.9-18.7,18.7a1.347,1.347,0,0,1-1.4,1.3c-2,0-13.3,15.3-18.3,24.7-11,20.7-14.9,47.3-10.3,69.3,1.5,7.1,6.9,19,8.6,19a1.616,1.616,0,0,1,1.4,1.8,4.687,4.687,0,0,0,1.1,2.9c.9.9.9,3.8,0,11.5-4.2,38.5-.9,69.9,9.6,90.8,3.8,7.5,5.3,9.6,7.1,9.8,1.8.3,2.3.8,1.9,2.3-.7,2.7,10,11.5,19.7,16.3,9.8,4.9,18,6.6,31.4,6.6,14.6,0,24.9-1.6,26.3-4.2.8-1.5,1.3-1.7,2.4-.8,1,.9,3.7.4,11.1-2,20.5-6.6,29.5-7.4,48.5-4.3,15.5,2.4,53.2,2.4,70.4-.1s28.4-1.8,42,2.5c23.6,7.4,26.8,8.1,39.1,8.6a158.456,158.456,0,0,0,18.8-.2c5.9-.6,6.8-1,7.7-3.1.5-1.4,1.4-2.2,1.9-1.9a1.216,1.216,0,0,1,.5,1.6c-1.2,1.9,2.6.8,10.6-3.3,11-5.5,23.2-17.3,27.7-26.8a114.852,114.852,0,0,0,8.8-28c2.2-11.3,3-43.3,1.4-57.5-.6-6.1-1.5-17.5-2.1-25.5-.5-8-1.6-17.7-2.5-21.5-.9-3.9-1.8-8-2.1-9.3s-1.2-2.1-2.1-2a1.772,1.772,0,0,1-2-1.6c-.2-1.1,0-1.6.7-1.2.6.4,1.1.3,1.1-.2,0-1.9-5.1-12.4-9.2-18.9-4.2-6.6-4.3-7.1-4.2-14.8,0-5.2,1.1-12.9,3.2-22,4.2-18.9,5.2-27,5.2-44.3,0-21.7-2.4-38.6-8-56.7-4.5-14.2-5-15.5-6.9-15.5-2.6,0-3.3-1.1-1.5-2.5,1.5-1,1.3-1.7-1.1-6.6-1.5-3-4.8-8.6-7.2-12.4-14.7-22.8-31.6-33.4-51.9-32.3l-6.4.3-5.7-5.6c-10.5-10.2-20.2-14-30.6-11.8-6.8,1.5-12.4,4.4-22.2,11.5a91.336,91.336,0,0,1-13.8,8.2c-12.2,4.9-37.4,5-49,0a88.733,88.733,0,0,1-12.4-7.5c-10.6-7.6-15.1-10-21.8-11.7C353.6-667.3,353-667.3,346.9-665.6Zm21.7,10.4c3.8,2.3,9.7,6.2,13.1,8.6,11.5,8.2,24.9,11.3,44.1,10.1,14.8-.9,20.9-3.1,35.5-12.9,6.9-4.6,14.2-8.9,16.2-9.6,5.8-1.9,14.6-.9,19.5,2.4,3,2,4.5,2.4,5.4,1.7,1.6-1.4,2.9-.2,1.6,1.4-.8.9-.2,2,2.1,3.9,1.7,1.5,3,2.8,2.8,2.9a33.119,33.119,0,0,1-3.9,1.8l-3.4,1.6-3.7-4.7c-4.9-6.2-8.7-7.8-13.3-5.6-4.1,1.9-12.4,10.9-13.2,14.3-.9,3.2,1,4.9,6.4,5.7,3.4.5,4.2.3,4.2-.9a1.561,1.561,0,0,1,1.6-1.5c1,0,1.4.6,1.1,1.5-.4,1,.7,1.8,4.1,2.7,4.6,1.3,4.7,1.5,5.2,5.8,1.1,9.4,6.1,16,25.1,33.5,12.5,11.5,18.1,22.2,19.9,38.4,1.6,14.5-1.3,30.2-7.9,41.5-2.6,4.6-3.2,5.1-8.2,6.2-3,.6-8.5,1.9-12.4,2.8a134.232,134.232,0,0,1-16.2,2.3c-8.1.5-9.3.8-9.3,2.5,0,2.2-1.8,2.4-2.6.3-.5-1.2-2.5-1.5-8.9-1.5s-8.4.3-8.9,1.5c-.3.8-1,1.5-1.6,1.5-.5,0-1-.7-1-1.5,0-2.4-15.8-2.2-17.6.2-1.2,1.7-1.3,1.7-1.9,0-.6-1.4-2-1.7-9-1.7-6.4,0-8.4.3-8.9,1.5-.3.8-1,1.5-1.6,1.5-.5,0-1-.7-1-1.5,0-2.4-15.8-2.2-17.6.2-1.2,1.7-1.3,1.7-1.9,0-.6-1.4-2-1.7-9-1.7-6.4,0-8.4.3-8.9,1.5-.3.8-1,1.5-1.6,1.5-.5,0-1-.7-1-1.5,0-1.2-1.6-1.5-8.5-1.5-7.1,0-8.5.3-8.5,1.6,0,.9-.6,1.4-1.2,1.1a2.21,2.21,0,0,1-1.2-2.1c.2-1.3-.9-1.6-6.5-1.6-9.9,0-30.6-2.7-39.1-5-9.5-2.7-14.9-5.8-22.7-13.3-6.3-6-6.3-6-6.3-11.8,0-41.1,19.4-93.5,43.5-117.6,8.5-8.5,14.9-11.5,23.6-11.1C360.7-659.5,362.6-658.9,368.6-655.2Zm96.4.7a1.538,1.538,0,0,1-1.5,1.5,1.538,1.538,0,0,1-1.5-1.5,1.538,1.538,0,0,1,1.5-1.5A1.538,1.538,0,0,1,465-654.5Zm69.2,12.9c17.9,3.9,34.5,22.2,46.2,51.4,7.4,18.5,11.4,37.5,12.3,59.7.7,16.8-.7,30.7-4.9,50-1.6,7.6-3.1,15.6-3.2,17.7-.1,2-.4,4-.7,4.2-.3.3-5.2-4.1-11-9.7-10.5-10.4-26.2-21.8-38.1-27.8l-5.9-3,3.4-3.8c7.7-8.5,12.6-23.7,13.4-41.4.6-11.5.5-11.7-1.6-11.7-1.1,0-2.1-.5-2.1-1,0-.6.7-1,1.6-1,1.3,0,1.5-.7.9-3.8-2.3-12.8-15-33.2-20.5-33.2-1.3,0-2-.6-1.8-1.4.4-2-17.1-18.6-18.8-17.9-.8.3-1.4-.1-1.4-1.1,0-.9.4-1.6.9-1.6s.1-1.8-1-4c-3.8-7.8-1.9-14.4,5-17.8C515.7-643,523.4-643.8,534.2-641.6Zm10,104.1a1.6,1.6,0,0,1-1.1,1.3c-.6.2-1.1-.4-1.1-1.3s.5-1.5,1.1-1.3A1.6,1.6,0,0,1,544.2-537.5ZM283.8-520c1,0,1.3.7.8,2.2-.3,1.5.3,3.6,2.2,6.2,3.1,4.5,14.5,14.1,15,12.6a2.112,2.112,0,0,1,1.9-1c1,0,1.2.6.8,1.9-.5,1.6.9,2.6,8.7,6.4A135.26,135.26,0,0,0,348.1-480c11.7,2.4,13.9,2.5,13.9.5a1.561,1.561,0,0,1,1.6-1.5c1.1,0,1.5.6,1.1,1.9-.4,1.8.3,2,8.7,2.5,5,.4,10.6.7,12.4.9l3.3.2.2,7.5c.3,9.4,3.8,16.5,11,22.2,7.2,5.6,21.7,9.2,21.7,5.3,0-1.8,2.7-2,3.2-.3.7,2.1,9.8-2.1,14.9-6.9a28.3,28.3,0,0,0,9.3-21.4v-6.6l11.1-.6c16.3-1,21.5-1.8,21.5-3.3,0-1.7,2.7-1.9,3.2-.3,1.1,3.2,26.4-5.9,35.3-12.7l3.4-2.6,9.8,5.5c33.8,19.1,55.5,43.1,65.9,73.1a59.1,59.1,0,0,1,2.4,8.2,16.845,16.845,0,0,0,1.1,4.1c1.3,3.5,1.3,25-.1,32.2-1.3,7.1-1.3,8.1.5,8.1s2,1.6.4,2.6a1.494,1.494,0,0,1-1.9-.6c-.5-.8-1.4.7-2.5,4.1-2.4,7.4-8.4,19.4-13.4,26.8-3,4.4-3.7,6.1-2.6,6.1,1.6,0,2,1.2.8,2.3-.3.4-1.2.2-1.9-.4-.9-.7-2.6.5-6.6,4.7-2.9,3.2-6.8,7.1-8.6,8.7-2.3,2.2-3.1,3.6-2.6,5,.5,1.7.3,1.9-1.6,1.4-1.6-.4-3.7.7-8,4.2-13.7,11-36.4,22.6-58.1,29.7-6.3,2.1-11.7,4.2-12,4.7a1.281,1.281,0,0,1-1.6.4c-.6-.4-6.1.4-12.4,1.8-17.8,3.7-29.8,4.8-51.4,4.9-21.3,0-32.8-1.1-51.8-5-19.4-3.9-39.5-10.7-55.6-18.9-5.2-2.6-7.1-3.1-8-2.2s-1.3.6-1.7-1.1c-.4-1.3-3.1-3.7-6.7-5.9-9.1-5.5-24.4-18.1-31.6-25.9a169.913,169.913,0,0,1-12.5-16.1c-3.8-5.8-6.8-9.3-7.8-9.3-2,0-2.3-1.1-.8-2.6.7-.7.3-2.8-1.4-6.6-2.3-5.2-5.6-16.2-5.6-18.6,0-.7,1.8-.3,4.3.8,7.9,3.7,17.7,2.2,24.6-3.6,4.6-3.9,6.1-7.4,6.1-14.7,0-7.6-1.8-14.2-7.2-25.6a69.672,69.672,0,0,1-4.9-14c-1-6.6.4-16.9,3.6-25.8,1.2-3.4,1.8-6.1,1.2-6-.5.1-1.2-.4-1.5-1.2-.3-1,.1-1.3,1.4-.9,1.5.4,2.7-.9,5.4-5.6a98.079,98.079,0,0,1,10.8-13.8c7.4-7.7,8.7-10.9,4.8-11.6-2.3-.5-11.1,7.9-17.1,16.3-11.7,16.4-17.6,37.2-14.6,51.5,1.7,8.2,8,21,10.3,21,1.9,0,2.5,2.6.7,3.2-.8.3-.8,1.4,0,4.3a42,42,0,0,1,1.1,9.1c0,4.3-.4,5.4-3.2,8.1-8,7.7-17.7,6.9-27.5-2.1-10.1-9.2-14.5-22.5-14.5-43.6,0-33.8,14.7-60.1,51.7-92.4,8.3-7.2,9-7.6,9.9-5.7A3.239,3.239,0,0,0,283.8-520Zm41,21.9c.3.8-.1,1.2-.9.9a2.857,2.857,0,0,1-1.7-1.7c-.3-.8.1-1.2.9-.9A2.857,2.857,0,0,1,324.8-498.1Zm20-.7c-.6,1.8-2.8,2.1-2.8.4a1.58,1.58,0,0,1,1.6-1.6C344.5-500,345-499.5,344.8-498.8Zm160,0c-.6,1.8-2.8,2.1-2.8.4a1.58,1.58,0,0,1,1.6-1.6C504.5-500,505-499.5,504.8-498.8Zm20-.1a1.481,1.481,0,0,1-1.3,1,1.481,1.481,0,0,1-1.3-1c-.2-.6.4-1.1,1.3-1.1S525-499.5,524.8-498.9Zm-97.5,8.3a24,24,0,0,1,15.1,16.3l.7,2.3H419.6c-26.3,0-25.3.3-21.6-7,2.3-4.5,8.4-9.9,13.1-11.6A27.935,27.935,0,0,1,427.3-490.6Zm-42.5,11.4c.2.7-.3,1.2-1.2,1.2a1.58,1.58,0,0,1-1.6-1.6C382-481.3,384.2-481,384.8-479.2Zm60-.6c-.6,1.8-2.8,2.1-2.8.4a1.58,1.58,0,0,1,1.6-1.6C444.5-481,445-480.5,444.8-479.8Zm20,.6c.2.7-.3,1.2-1.2,1.2a1.58,1.58,0,0,1-1.6-1.6C462-481.3,464.2-481,464.8-479.2ZM416-455.9v10.1l-3-.5c-7.3-1.5-17-11.4-17-17.4,0-2.2.2-2.3,10-2.3h10Zm26.3-7.4c-.2,1.5.3,2.3,1.2,2.3,1.6,0,2,1.2.8,2.3-.3.4-1.2.2-2-.4-.9-.9-1.3-.8-1.3,0,0,3.7-12.2,13.1-17,13.1-1.9,0-2-.6-1.9-9.3a78.714,78.714,0,0,1,.6-10c.3-.4,4.8-.6,10.1-.5C442.2-465.5,442.5-465.4,442.3-463.3Zm-217.5,3.4a1.481,1.481,0,0,1-1.3,1,1.481,1.481,0,0,1-1.3-1c-.2-.6.4-1.1,1.3-1.1S225-460.5,224.8-459.9ZM607.9-337.3c.2,23.1-4.3,45.9-11.7,59.7-8,14.8-25.2,26.5-42.4,28.9-5.6.7-8.8,1.6-8.8,2.4,0,2.2-2.1,2.5-2.7.4-.4-1.7-1.3-2.1-4.8-2.1-6.8,0-20-2.8-33.2-7.1-6.7-2.1-12.9-3.9-13.8-3.9-3.5,0-1.1-1.6,5-3.4,4.2-1.2,6.5-2.4,6.5-3.3,0-1.1.7-1.3,2.4-.9,2.7.7,15.1-4.3,30.3-12.2,6.5-3.3,8.1-4.5,7.6-5.9-.5-1.3-.3-1.5,1.2-.9,4.3,1.6,30.6-19.9,42.5-34.9,7.1-9,15.2-23,18-31.4l2.5-7.3.7,4.8C607.5-351.7,607.9-344,607.9-337.3Zm-374-16.5c1.6,5.4,8.3,18.7,12.3,24.7,13.5,20,35,38.4,60,51.5,11.4,6,31.2,14,38.8,15.8,5.8,1.3,6.3,2.3,1.7,3.2-1.8.3-8.9,2.4-15.8,4.5a181.907,181.907,0,0,1-19.5,5c-5,.9-7.1,1.7-7,2.6,0,.8-.3,1.4-.9,1.4-.5,0-.9-.6-.9-1.3.1-1-2.5-1.5-10.5-1.8-21.4-1-39.2-11.2-49.2-28.3-6.6-11.3-11.7-34-11.9-52.5-.2-19.9,0-29,.8-29C232.3-358,233.2-356.1,233.9-353.8ZM605-285.6a6.045,6.045,0,0,1-1.5,1.6c-1.2,1-1.5,1-1.5-.4a1.561,1.561,0,0,1,1.5-1.6C604.3-286,605-285.8,605-285.6ZM344.8-265.8c-.6,1.8-2.8,2.1-2.8.4a1.58,1.58,0,0,1,1.6-1.6C344.5-267,345-266.5,344.8-265.8ZM525-245.9c0,.5-.7.9-1.5.9-1.5,0-2-1.2-.9-2.3C523.4-248.1,525-247.2,525-245.9Zm-240.2,0a1.481,1.481,0,0,1-1.3,1,1.481,1.481,0,0,1-1.3-1c-.2-.6.4-1.1,1.3-1.1S285-246.5,284.8-245.9Z" transform="translate(4500.472 2076)"/>
    <path id="Path_1101" data-name="Path 1101" d="M347.5-653.8c-5.9,3.2-12.7,12.8-16.1,22.5-2.6,7.3-1.3,8.4,5.7,4.4,5.2-2.9,13.2-5.4,21.2-6.6,2-.3,3.7-1.1,3.7-1.7s1-.8,2.5-.4c3.1.8,4.2-1.2,2.4-4.6-2.1-4.1-8.1-11-11.3-12.9C352.1-655.3,350.3-655.4,347.5-653.8Zm-2.7,18.9a1.481,1.481,0,0,1-1.3,1,1.481,1.481,0,0,1-1.3-1c-.2-.6.4-1.1,1.3-1.1S345-635.5,344.8-634.9Z" transform="translate(4500.472 2076)"/>
    <path id="Path_1102" data-name="Path 1102" d="M357.2-580.9c-3.8,1.1-5.1,3.4-3,5.5,1.7,1.8,7.8.8,7.8-1.2a1.453,1.453,0,0,1,1.5-1.4c.8,0,1.5.4,1.5.9s2.2,1.1,5,1.5a17.056,17.056,0,0,1,7.9,3.1c3.3,2.9,6.6,3.2,7.5.9.8-2-.1-3.4-2-3.4a1.347,1.347,0,0,1-1.4-1.3c0-.7-1.4-2.1-3.2-3.2C375.1-581.7,362.4-582.5,357.2-580.9Z" transform="translate(4500.472 2076)"/>
    <path id="Path_1103" data-name="Path 1103" d="M463.6-581c-6.5,2.1-11.8,7.3-10.1,10,1.8,2.9,9.7-1.6,8.8-5-.4-1.4,0-2,1.2-2,1,0,1.5.5,1.2,1.3-.3.9,1.2,1.2,6.2,1.2a50.773,50.773,0,0,1,9.3.7c2.3.7,2.5.5,2.1-1.2-.6-2.2,2.2-2.9,3-.8.4,1,.6,1,.6.1C486.2-580.5,471-583.4,463.6-581Z" transform="translate(4500.472 2076)"/>
    <path id="Path_1104" data-name="Path 1104" d="M414-559.7c-3.4,1.7-3.6,4.8-.5,7.9,2.3,2.3,2.6,3.3,2.3,8.5l-.3,5.8-5.4,2.9c-4.9,2.6-5.6,2.8-9.1,1.6-4.2-1.4-6-.8-6,2,0,2.3,4.7,5,8.8,5,1.6,0,5.9-1.5,9.4-3.3l6.5-3.2,4.8,3c6.1,3.8,14.2,4.2,17.5.9,3.1-3,1.7-5.8-2.4-4.9-4.6,1.1-8.2.8-11.8-1.2a12.6,12.6,0,0,0-4.5-1.5c-2,.4-1.8-13.4.1-14.1,2.2-.9,4.7-5.2,4-7-.6-1.7-5.4-3.7-8.8-3.7A12.373,12.373,0,0,0,414-559.7Zm11,2.7c0,.5-.7,1-1.5,1s-1.5-.5-1.5-1c0-.6.7-1,1.5-1S425-557.6,425-557Z" transform="translate(4500.472 2076)"/>
    <path id="Path_1105" data-name="Path 1105" d="M338-559c0,1.8,9.1,6.9,13.5,7.6,4.6.6,10.5-.2,10.5-1.6,0-.9-13-3.3-17.2-3.1-1.7,0-2.8-.5-2.8-1.3a2.34,2.34,0,0,0-1.6-2C338.3-560.2,338-560.2,338-559Z" transform="translate(4500.472 2076)"/>
    <path id="Path_1106" data-name="Path 1106" d="M494.1-557.5a47.316,47.316,0,0,1-11.2,2.9c-5.8.7-7.4,1.8-4.3,3,4.8,1.8,14.2-.6,19.1-5C502.1-560.5,501.5-560.6,494.1-557.5Z" transform="translate(4500.472 2076)"/>
    <path id="Path_1107" data-name="Path 1107" d="M332.5-546c-4.7,1-9.9,2.9-9.4,3.5,1,.9,30.3-1.1,30.6-2.1C354.5-546.9,341.2-547.7,332.5-546Z" transform="translate(4500.472 2076)"/>
    <path id="Path_1108" data-name="Path 1108" d="M486.3-546.4c-1.3.3-2.3.9-2.3,1.5,0,.5,1,1.1,2.3,1.3,4.5.9,28.7,1.5,28.7.7C515-545.1,492.8-547.8,486.3-546.4Z" transform="translate(4500.472 2076)"/>
    <path id="Path_1109" data-name="Path 1109" d="M348.5-535.6a54.529,54.529,0,0,1-8.2,2.5c-7.1,1.7-5.8,3.5,2.1,2.9,9.1-.8,19.8-6.9,11.9-6.8A21.286,21.286,0,0,0,348.5-535.6Z" transform="translate(4500.472 2076)"/>
    <path id="Path_1110" data-name="Path 1110" d="M482-535.8c0,1.9,10.5,5.8,15.6,5.8,2.8,0,5.4-.3,5.7-.7.8-.8-13.1-5.2-18-5.7C483.5-536.6,482-536.3,482-535.8Z" transform="translate(4500.472 2076)"/>
  </g>
</svg>
