<svg xmlns="http://www.w3.org/2000/svg" width="373.367" height="303.832" viewBox="0 0 373.367 303.832">
  <g id="Group_1" data-name="Group 1" transform="translate(-89.346 -267.344)">
    <path id="Path_1" data-name="Path 1" d="M509.929-1207.275a75.911,75.911,0,0,0-13.765,7.908c-1.9,1.538-3,1.757-3,.732,0-.366,1.391-1.538,3.148-2.49,4.54-2.636,5.491-3.954,4.027-5.418-1.025-.952-1.611-.952-3.954-.22-4.979,1.611-8.347,3.588-7.908,4.686.513,1.318-1.172,2.343-1.9,1.172-1.538-2.49-22.991,16.035-28.775,24.894-6.809,10.47-10.031,20.135-10.031,30.02,0,5.272.293,6.736,1.83,9.445a12.609,12.609,0,0,1,1.83,4.393,9.165,9.165,0,0,0,1.464,3.514l1.464,2.416h-1.538c-.805,0-2.563-1.171-3.807-2.563-2.709-3.075-3.881-3.222-4.466-.659-1.391,5.345,7.1,10.031,13.033,7.249,4.393-2.123,7.615-9.152,4.1-9.152a2.607,2.607,0,0,0-2.05,1.171c-.366.659-1.025,1.025-1.538.732-1.391-.879-.879-1.464,2.489-2.856a11.065,11.065,0,0,0,4.686-3.661c1.538-2.563,3.734-12.081,3.734-16.255,0-3.148,6.37-16.108,11.569-23.43,5.784-8.2,16.987-18.6,26.139-24.309,10.617-6.59,18.085-4.759,22.551,5.565,1.9,4.466,2.782,6.59,3.148,7.761,4.54,16.181,5.418,22.332,6.077,44.664.732,22.844,1.172,24.235,10.47,35,6,6.956,7.029,9.079,7.615,15.376.146,2.49.513,5.565.659,6.809l.22,2.343-3.222-3.222c-5.784-5.638-16.621-9.445-19.7-6.883-.952.805-.732,1.318,1.9,4.173a33.028,33.028,0,0,1,4.759,7.176c1.831,4.027,3.807,11.715,3.148,12.374-.22.22-2.856-.512-5.858-1.537-4.759-1.757-6.516-1.977-14.571-1.977-10.4,0-14.863,1.1-15.23,3.807a1.675,1.675,0,0,0,1.1,2.05c5.125,1.831,13.692,6.443,16.328,8.786a19.384,19.384,0,0,1,6.59,14.2v4.027l15.962-.22c14.571-.22,29.581.732,39.758,2.49,2.563.439,2.636.366,4.247-3.441,3.807-8.713-.805-17.939-13.106-26.286-6.956-4.686-12.081-9.811-13.765-13.765a38.668,38.668,0,0,1-1.977-9.3c-.513-5.931-1.9-10.617-3.148-10.617-.366,0-.879-.879-1.1-2.05-.22-1.1-2.636-4.466-5.272-7.468-5.345-5.931-7.908-10.4-8.786-15.01a120.957,120.957,0,0,1-.439-13.911c.146-22.625-3.515-44.737-9.518-57.257-1.9-3.954-2.49-4.613-3.661-4.247-1.245.439-1.464.22-1.245-1.538.146-1.684-.366-2.416-2.929-4.247-2.709-1.9-3.954-2.27-8.42-2.49C515.055-1208.959,513.224-1208.666,509.929-1207.275Zm-6.517,6a1.126,1.126,0,0,1-1.1,1.1,1.126,1.126,0,0,1-1.1-1.1,1.126,1.126,0,0,1,1.1-1.1A1.126,1.126,0,0,1,503.413-1201.271Zm-29.288,13.912a1.126,1.126,0,0,1-1.1,1.1,1.126,1.126,0,0,1-1.1-1.1,1.126,1.126,0,0,1,1.1-1.1A1.126,1.126,0,0,1,474.125-1187.359Zm14.5.22c.146.513-.22.879-.879.879a1.157,1.157,0,0,1-1.172-1.172C486.572-1188.677,488.183-1188.458,488.622-1187.14Zm-29.288,14.2c-.439,1.318-2.05,1.538-2.05.293a1.156,1.156,0,0,1,1.172-1.171C459.115-1173.814,459.481-1173.448,459.335-1172.935Zm14.79.22a1.126,1.126,0,0,1-1.1,1.1,1.126,1.126,0,0,1-1.1-1.1,1.126,1.126,0,0,1,1.1-1.1A1.126,1.126,0,0,1,474.125-1172.715Zm-14.79,14.131c.146.513-.22.879-.879.879a1.157,1.157,0,0,1-1.172-1.172C457.285-1160.122,458.9-1159.9,459.335-1158.584Zm-.22,14.79a.7.7,0,0,1-1.245.146,1.348,1.348,0,0,1-.22-1.611.7.7,0,0,1,1.245-.146A1.348,1.348,0,0,1,459.115-1143.794Zm88.082,27.677c.146.513-.22.879-.879.879a1.157,1.157,0,0,1-1.172-1.172C545.148-1117.655,546.758-1117.435,547.2-1116.117Zm.146,28.775c0,.366-.659.659-1.464.659-1.611,0-1.977-1.172-.513-1.684C546.465-1088.733,547.344-1088.294,547.344-1087.342Zm14.278-.732c.732,1.1-.073,1.684-1.464,1.1-.659-.22-.952-.732-.732-1.172A1.185,1.185,0,0,1,561.622-1088.074Zm-14.863,14.937a1.171,1.171,0,0,1-.805.952c-.439.146-.805-.293-.805-.952s.366-1.1.805-.952A1.171,1.171,0,0,1,546.758-1073.138Zm14.79,0c-.293.586-.732,1.1-1.1,1.1s-.659-.513-.659-1.1a1.126,1.126,0,0,1,1.1-1.1C561.549-1074.236,561.768-1073.8,561.549-1073.138Zm-29.288,13.912c.22.659,0,1.1-.659,1.1a1.126,1.126,0,0,1-1.1-1.1c0-.586.293-1.1.659-1.1S531.968-1059.812,532.261-1059.226Zm14.5.513a1.348,1.348,0,0,1-1.611.22c-.659-.439-.659-.659.073-1.172C546.465-1060.4,547.71-1059.665,546.758-1058.713Zm15.083-.293c.146.513-.22.879-.879.879a1.157,1.157,0,0,1-1.172-1.172C559.791-1060.544,561.4-1060.324,561.841-1059.006Zm14.424-.659c.513.879-.879,1.757-1.83,1.172-.805-.513-.293-1.83.732-1.83A1.613,1.613,0,0,1,576.266-1059.665Zm-29.068,14.79a1.084,1.084,0,0,1-.952.732,1.084,1.084,0,0,1-.952-.732c-.146-.439.293-.805.952-.805S547.344-1045.314,547.2-1044.875Zm14.79-.146c0,.366-.513.805-1.1,1.1-.659.22-1.1,0-1.1-.659a1.126,1.126,0,0,1,1.1-1.1C561.475-1045.68,561.988-1045.388,561.988-1045.021Zm14.278,0c.732,1.245-.879,1.538-1.83.439-.732-.879-.732-1.1.22-1.1A2.19,2.19,0,0,1,576.266-1045.021Zm14.571.439c-.513,1.245-1.464,1.464-2.05.439-.513-.732.22-1.538,1.464-1.538C590.836-1045.68,591.056-1045.241,590.836-1044.582Z" transform="translate(-146.085 1476.19)"/>
    <path id="Path_2" data-name="Path 2" d="M176.719-1144.8c-5.2,1.391-7.688,2.709-9.958,5.491-5.2,6.15-7.761,15.23-7.761,27.384,0,8.64,1.757,16.4,6.224,26.945,2.489,6,2.709,7.029,3.295,17.573.879,15.962,3.881,23.577,13.106,33.241,2.782,2.929,5.2,5.931,5.418,6.736.146.732-.439,2.929-1.391,4.906-2.636,5.491-2.343,9.445,1.464,18.817l3.295,7.981-2.123,2.929c-8.2,11.276-7.249,28.263,2.123,38.806,1.611,1.831,3,3.954,3,4.613,0,.732-1.171,3.075-2.636,5.272s-2.489,4.1-2.343,4.247c.805.879,37.342-12.447,45.249-16.474,1.391-.659,6.663-3.148,11.715-5.491l9.152-4.174,3.515-7.4c5.2-11.2,5.272-10.91-1.318-20.355-1.977-2.855-2.2-3.661-2.2-9.006,0-8.347.879-10.1,5.638-11.276,4.906-1.172,8.713-3.734,8.493-5.638-.293-2.123-2.782-2.2-8.347-.366-9.079,3.075-14.2.879-19.257-8.054-1.464-2.636-3.295-4.832-4.027-4.979-1.9-.366-5.784,4.247-7.4,8.859-.732,2.27-1.684,3.881-2.05,3.661s-.513-2.343-.366-4.613c.366-5.052,2.709-8.64,7.615-11.642,2.27-1.318,3.148-2.343,3-3.368-.073-1.025-.586-1.391-1.757-1.245-1.9.293-2.05-.073-.805-2.05.732-1.1.659-1.611-.439-2.856-1.9-2.123-4.1-.879-4.1,2.343-.073,1.977-.513,2.636-3.295,4.32a15.617,15.617,0,0,0-5.418,5.858c-2.563,4.393-2.709,4.979-1.172,4.979a1.143,1.143,0,0,1,1.1,1.172c0,.805-.439,1.025-1.611.659-1.464-.512-1.538-.366-1.1,3.515a27.169,27.169,0,0,0,1.9,7.176A32.869,32.869,0,0,1,222.7-1013a9.322,9.322,0,0,1-2.709.732c-8.054,1.318-16.474,4.979-20.867,8.933-1.538,1.391-2.929,2.416-3.148,2.27-.146-.22-1.318-2.636-2.563-5.418-3.148-6.956-3.515-10.91-1.538-14.863,1.538-3,2.27-8.274.805-6-.513.879-.879.879-1.538.22-.732-.732-.659-1.025.293-1.391.659-.22,1.245-.805,1.245-1.318,0-.439-2.489-3.441-5.491-6.663-9.592-10.324-11.935-16.181-12.887-31.631-.439-7.908-1.025-12.3-2.05-15.01-.805-2.123-2.636-7.175-4.1-11.129a61.6,61.6,0,0,1-3.515-28.482c1.464-10.47,4.906-18.085,8.347-18.085a4.127,4.127,0,0,0,2.489-1.171,2.225,2.225,0,0,1,2.416-.659c2.27.952,12.081,1.1,13.179.146.805-.586,1.172-.512,1.684.439a3.124,3.124,0,0,0,2.343,1.245c2.782,0,11.861,2.782,18.671,5.711,8.274,3.588,20.428,10.836,28.775,17.133,3.588,2.709,6.516,4.613,6.516,4.247,0-.439.513-.732,1.1-.732a1.126,1.126,0,0,1,1.1,1.1c0,.586-.293,1.1-.586,1.1-.366,0,2.343,3.075,6,6.736a112.8,112.8,0,0,1,8.274,9.006l1.538,2.2h-6.736c-4.979,0-7.249.366-9.006,1.318-2.489,1.318-3.148,3-1.464,3.661.513.293.146.659-.879.952-3,.879-9.152,4.32-9.445,5.2-.513,1.757,2.343,2.27,6.809,1.172a81.1,81.1,0,0,1,11.5-1.464c5.638-.293,6.956-.586,6.663-1.391-.22-.586.073-1.025.805-1.025a1.157,1.157,0,0,1,1.172,1.172c0,1.025.22,1.025,1.1.293a2.075,2.075,0,0,0,.732-2.123c-.586-1.977,4.979-1.1,7.029,1.1,1.83,1.977,3.588,2.27,3.588.659a1.126,1.126,0,0,1,1.1-1.1c.586,0,1.1.293,1.1.732,0,2.49,6.443-2.05,8.493-5.931a10.585,10.585,0,0,0,0-8.933c-1.245-2.27-1.1-2.343,1.611-.952,2.27,1.172,6.883,1.172,7.249,0,.146-.439-.586-1.611-1.684-2.709-2.416-2.416-8.42-3.881-12.081-2.856-2.343.586-2.856.439-5.125-1.464a253.471,253.471,0,0,0-20.355-15.156c-5.345-3.441-7.1-4.32-7.834-3.661-.805.659-1.171.439-1.684-.952-1.172-3.075-18.744-10.47-34.486-14.5C200.735-1145.82,184.553-1146.919,176.719-1144.8Zm30.459,3.149c.22.586-.073.879-.659.659a2.092,2.092,0,0,1-1.245-1.245c-.22-.586.073-.879.659-.659A2.092,2.092,0,0,1,207.178-1141.647Zm-44.371,14.863c-.659.659-.879.513-.879-.879s.22-1.538.879-.879S163.466-1127.442,162.807-1126.783Zm73.8-1.318a2.143,2.143,0,0,1-.659,1.537c-.879.513-1.757-.879-1.172-1.83C235.441-1129.492,236.612-1129.273,236.612-1128.1Zm-73.219,14.717c0,.586-.293,1.1-.659,1.1-.952,0-1.611-1.171-1.025-1.757C162.515-1114.849,163.393-1114.483,163.393-1113.384Zm102.507.073c0,1.245-1.611,1.025-2.05-.293-.146-.513.22-.879.879-.879A1.156,1.156,0,0,1,265.9-1113.311Zm-102.726,14.644c-.659.659-2.05-.439-1.538-1.318.293-.439.732-.439,1.245.073C163.32-1099.473,163.466-1098.96,163.173-1098.667Zm102.726-.805a1.126,1.126,0,0,1-1.1,1.1c-1.172,0-1.464-.879-.586-1.684C265.021-1100.937,265.9-1100.644,265.9-1099.473Zm14.644.439c0,.366-.513.659-1.1.659-1.1,0-1.464-.879-.659-1.684C279.372-1100.644,280.544-1099.985,280.544-1099.033Zm-29.434,13.985c-.439,1.318-2.05,1.537-2.05.293a1.157,1.157,0,0,1,1.172-1.172C250.89-1085.927,251.256-1085.561,251.11-1085.048ZM178.4-1042.728c.22.439-.073.952-.732,1.172-1.391.586-2.2,0-1.464-1.1A1.185,1.185,0,0,1,178.4-1042.728Zm58.209,15.01c0,.659-.439.879-1.1.659-.586-.293-1.1-.732-1.1-1.1s.513-.659,1.1-.659A1.126,1.126,0,0,1,236.612-1027.718Zm0,13.912a1.126,1.126,0,0,1-1.1,1.1,1.126,1.126,0,0,1-1.1-1.1,1.126,1.126,0,0,1,1.1-1.1A1.126,1.126,0,0,1,236.612-1013.806Zm14.644,0a1.126,1.126,0,0,1-1.1,1.1,1.126,1.126,0,0,1-1.1-1.1,1.126,1.126,0,0,1,1.1-1.1A1.126,1.126,0,0,1,251.256-1013.806Zm-58.575,13.838c0,1.245-1.025,2.123-1.684,1.464-.586-.586.22-2.489,1.025-2.489C192.388-1000.993,192.681-1000.554,192.681-999.968Zm14.644.513c0,.366-.513.659-1.1.659-1.1,0-1.464-.879-.659-1.684C206.153-1001.066,207.325-1000.407,207.325-999.455Zm14.644,0c0,.366-.513.659-1.1.659-1.1,0-1.464-.879-.659-1.684C220.8-1001.066,221.968-1000.407,221.968-999.455Zm28.922.659a.7.7,0,0,1-1.245.146,1.348,1.348,0,0,1-.22-1.611.7.7,0,0,1,1.245-.146A1.348,1.348,0,0,1,250.89-998.8Zm-14.278-.732c0,.366-.513.732-1.1.732s-1.1-.366-1.1-.732c0-.439.513-.732,1.1-.732S236.612-999.968,236.612-999.529Zm-43.931,14.351c0,.659-.366,1.025-.879.879-1.318-.439-1.538-2.05-.293-2.05A1.157,1.157,0,0,1,192.681-985.178Zm14.644-.073a1.126,1.126,0,0,1-1.1,1.1c-1.171,0-1.464-.879-.586-1.684C206.446-986.715,207.325-986.422,207.325-985.251Zm14.644,0a1.126,1.126,0,0,1-1.1,1.1,1.126,1.126,0,0,1-1.1-1.1,1.126,1.126,0,0,1,1.1-1.1A1.126,1.126,0,0,1,221.968-985.251Zm14.644-.439c0,.879-1.464,1.83-1.977,1.318s.439-1.977,1.318-1.977A.656.656,0,0,1,236.612-985.69Zm14.644.513c0,.659-.366,1.025-.879.879-1.318-.439-1.538-2.05-.293-2.05A1.157,1.157,0,0,1,251.256-985.178Zm-58.575,13.838a1.126,1.126,0,0,1-1.1,1.1c-1.172,0-1.464-.879-.586-1.684C191.8-972.8,192.681-972.511,192.681-971.339Zm14.644.439c0,.366-.513.659-1.1.659-1.1,0-1.464-.879-.659-1.684C206.153-972.511,207.325-971.852,207.325-970.9Zm14.644-.439a1.126,1.126,0,0,1-1.1,1.1c-1.172,0-1.464-.879-.586-1.684C221.09-972.8,221.968-972.511,221.968-971.339Zm14.644.439c0,.366-.513.659-1.1.659-1.1,0-1.464-.879-.659-1.684C235.441-972.511,236.612-971.852,236.612-970.9Zm14.644,0c0,.366-.513.659-1.1.659-1.1,0-1.464-.879-.659-1.684C250.084-972.511,251.256-971.852,251.256-970.9Zm-58.575,14.2c0,.586-.293,1.1-.659,1.1s-.805-.512-1.1-1.1c-.22-.659,0-1.1.659-1.1A1.126,1.126,0,0,1,192.681-956.7Zm14.644,0a1.126,1.126,0,0,1-1.1,1.1c-1.171,0-1.464-.879-.586-1.684C206.446-958.16,207.325-957.867,207.325-956.7Zm14.644.073c0,.659-.366,1.025-.879.879-1.318-.439-1.538-2.05-.293-2.05A1.157,1.157,0,0,1,221.968-956.622Zm-29.288,13.838a1.126,1.126,0,0,1-1.1,1.1c-1.9,0-1.318-1.464.952-2.123C192.608-943.882,192.681-943.37,192.681-942.784Z" transform="translate(-69.654 1459.326)"/>
    <path id="Path_3" data-name="Path 3" d="M497.614-1111.893c-4.686,1.1-11.056,4.686-11.422,6.516a2.128,2.128,0,0,0,1.245,1.977c1.1.659,2.416.366,6.077-1.318a43.824,43.824,0,0,1,10.1-3c6.077-.879,8.493-2.27,6.15-3.515C507.352-1112.552,501.934-1112.771,497.614-1111.893Z" transform="translate(-157.273 1450.366)"/>
    <path id="Path_4" data-name="Path 4" d="M501.46-1103.6a1.658,1.658,0,0,0,0,1.464c.22.586-.073,1.025-.805,1.025-.659,0-1.172-.366-1.172-.732,0-1.391-2.2-.732-4.54,1.391l-2.343,2.05,1.9,1.245c1.611,1.1,2.123,1.1,4.906.073a36.761,36.761,0,0,1,6.883-1.464c2.05-.146,4.247-.879,4.832-1.464,1.1-1.1,1.025-1.318-.586-2.636S502.558-1104.694,501.46-1103.6Z" transform="translate(-158.995 1448.146)"/>
    <path id="Path_5" data-name="Path 5" d="M513.041-1093.962c-1.1.879-1.245,1.318-.586,2.416,1.538,2.563,9.079,1.831,9.079-.879C521.535-1094.84,515.677-1095.865,513.041-1093.962Z" transform="translate(-164.207 1445.688)"/>
    <path id="Path_6" data-name="Path 6" d="M479.527-1082.6c-5.931,1.9-9.958,4.173-13.179,7.4-3.441,3.441-4.686,5.565-3.661,6.224,1.172.732.805,1.9-.513,1.684-1.538-.293-3,4.027-3.075,8.86-.073,3.661,2.05,8.786,4.247,10.1,1.318.805,1.318.659.952-3.807-.732-10.031,5.565-17.133,17.206-19.4,5.418-1.1,12.228-.293,18.817,2.2,9.958,3.734,13.912,12.813,9.226,21.014l-1.391,2.416,5.052-3.441c4.1-2.709,5.125-3.734,5.125-5.2,0-3-2.636-7.615-6.59-11.5-3.295-3.222-3.807-3.515-4.466-2.416-.879,1.611-2.123,1.684-2.123.22a1.126,1.126,0,0,1,1.1-1.1c1.464,0,1.391-1.9-.293-5.638a10.984,10.984,0,0,0-4.613-4.906c-4.613-2.709-8.127-3.807-8.493-2.782-.366,1.245-2.343,1.1-2.343-.22C490.51-1084.428,484.726-1084.281,479.527-1082.6Zm-16.108,28.7c0,.366-.513.659-1.1.659-1.1,0-1.464-.879-.659-1.684C462.248-1055.506,463.419-1054.848,463.419-1053.9Z" transform="translate(-150.023 1442.744)"/>
    <path id="Path_7" data-name="Path 7" d="M482.366-1058.408c0,.293,1.1.952,2.416,1.464a6.445,6.445,0,0,1,4.173,6.077c0,2.05-3.222,5.052-5.491,5.052s-5.491-3-5.491-5.125c0-1.025-.513-1.464-1.538-1.464-1.318,0-1.464.293-1.1,1.977a10.065,10.065,0,0,0,2.636,4.027c2.2,2.05,2.2,2.123,1.1,4.686-1.83,4.393-1.1,7.615,1.684,7.615a3.619,3.619,0,0,1,2.05,1.025c1.245,1.245,10.763,2.27,15.449,1.611,6.443-.879,11.2-4.686,11.2-8.933,0-4.686-6.956-9.738-13.765-10.031-2.563-.073-3.807-.439-3.807-1.1,0-1.977-2.27-5.272-4.393-6.37C485.221-1059.067,482.366-1059.36,482.366-1058.408Zm14.5,10.983c.146.512-.22.879-.879.879a1.157,1.157,0,0,1-1.172-1.172C494.813-1048.963,496.424-1048.743,496.863-1047.425Zm0,14.2c-.439,1.318-2.05,1.538-2.05.293a1.156,1.156,0,0,1,1.172-1.171C496.643-1034.1,497.009-1033.733,496.863-1033.221Z" transform="translate(-154.326 1436.053)"/>
    <path id="Path_8" data-name="Path 8" d="M276.158-1054.9c-2.709,2.05-.952,3.075,6.15,3.515,7.029.513,8.054.366,8.054-1.318C290.362-1055.564,279.306-1057.248,276.158-1054.9Z" transform="translate(-100.706 1435.259)"/>
    <path id="Path_9" data-name="Path 9" d="M306.436-1054.278c-6.443,2.123-13.692,7.761-16.181,12.667-1.684,3.222-1.83,7.029-.366,9.079.952,1.391.879,1.9-.732,5.052a18.223,18.223,0,0,0-1.757,4.906c0,2.05-2.05,6.663-3.514,7.761-1.172.879-1.172,1.025.146,1.977,1.464,1.1,6.59,2.27,12.52,2.782,2.929.293,3.368.22,2.27-.513-5.784-3.441-7.542-6.956-6.3-12.52,1.684-7.542,8.347-15.01,15.962-18.012,3.441-1.391,5.638-1.684,12.228-1.757,7.249,0,8.493.22,11.715,1.9a16.874,16.874,0,0,1,5.858,4.979c1.977,2.855,2.2,3.661,2.2,8.713,0,3.881-.439,6.443-1.318,8.127a7.879,7.879,0,0,0-1.025,2.782c.659.586,8.054-8.127,9.3-10.91,1.9-4.247,1.83-5.052-.805-7.615a71.525,71.525,0,0,1-5.565-6.37,40.321,40.321,0,0,0-15.742-11.569C321.154-1054.5,309.8-1055.376,306.436-1054.278Zm-7.322,7.761a1.126,1.126,0,0,1-1.1,1.1c-1.172,0-1.464-.879-.586-1.684C298.236-1047.981,299.115-1047.688,299.115-1046.517Zm14.644.439c0,.366-.513.659-1.1.659-1.1,0-1.464-.879-.659-1.684C312.587-1047.688,313.758-1047.029,313.758-1046.078Zm14.644-.439a1.126,1.126,0,0,1-1.1,1.1c-1.172,0-1.464-.879-.586-1.684C327.524-1047.981,328.4-1047.688,328.4-1046.517Zm14.5,14.351a1.085,1.085,0,0,1-.952.732,1.085,1.085,0,0,1-.952-.732c-.146-.439.293-.805.952-.805S343.046-1032.605,342.9-1032.166Z" transform="translate(-102.869 1434.925)"/>
    <path id="Path_10" data-name="Path 10" d="M275.432-1044.815c-4.32,1.9-2.27,4.832,2.343,3.295,1.757-.586,2.27-1.172,2.2-2.416C279.825-1045.914,278.507-1046.206,275.432-1044.815Z" transform="translate(-100.2 1432.492)"/>
    <path id="Path_11" data-name="Path 11" d="M412.032-1040.038c-14.2,2.416-25.041,12.594-25.334,23.723-.073,4.906.659,5.784,4.393,5.125,2.709-.439,3.075-.732,4.54-4.466,1.9-4.466,4.759-6.59,7.834-5.858,2.782.732,3.661,3.368,2.489,8.054-.805,3.295-.805,4.393,0,6.3,1.1,2.563,4.173,5.2,8.2,6.809,1.757.732,2.856,1.757,3.148,2.856,1.1,4.613,3.295,16.255,3.295,17.353,0,.659-1.464,1.9-3.295,2.929-6.37,3.368-10.177,10.324-15.376,28.189-3.514,11.935-4.393,13.912-7.615,17.426-.952,1.171-1.391,2.05-.952,2.05,1.83,0,7.615-6.736,13.692-15.962,8.347-12.74,12.447-15.742,21.6-15.815,5.052,0,13.692,2.49,16.474,4.833,7.1,5.857,20.575,15.23,21.892,15.23.879-.073-.366-1.1-5.491-4.759-1.684-1.245-6.3-6.15-10.324-10.983-15.156-18.3-16.84-19.842-24.089-21.673-4.1-1.1-3.734-.22-5.418-11.861l-1.172-7.981,4.1-3.734c3.734-3.368,4.247-4.174,4.54-7.322.366-2.856.22-3.441-.805-3.441a1.143,1.143,0,0,1-1.172-1.1c0-.586.293-1.1.732-1.1.366,0-.146-1.172-1.1-2.636-2.2-3.222-2.27-4.686-.513-6.883,2.416-3,7.981-1.464,9.811,2.636.805,1.684,1.172,1.831,3.807,1.464,3.661-.586,4.832-1.538,4.832-3.881a1.94,1.94,0,0,0-1.538-2.2c-1.025-.293-1.391-.879-1.171-1.757.732-2.636-8.274-9.006-15.23-10.763A39.433,39.433,0,0,0,412.032-1040.038Zm-12.081,11.788c-.439,1.318-2.05,1.538-2.05.293a1.157,1.157,0,0,1,1.172-1.172C399.731-1029.129,400.1-1028.762,399.951-1028.25Zm14.644-.073a1.085,1.085,0,0,1-.952.732,1.084,1.084,0,0,1-.952-.732c-.146-.439.293-.805.952-.805S414.741-1028.762,414.595-1028.323Zm14.644.073c-.439,1.318-2.05,1.538-2.05.293a1.157,1.157,0,0,1,1.172-1.172C429.019-1029.129,429.385-1028.762,429.239-1028.25Zm-14.5,14.131a1.126,1.126,0,0,1-1.1,1.1,1.126,1.126,0,0,1-1.1-1.1,1.126,1.126,0,0,1,1.1-1.1A1.126,1.126,0,0,1,414.741-1014.119Zm13.912,43.565c-1.318.805-1.757.439-1.172-1.172.366-1.025.659-1.1,1.391-.366C429.531-971.432,429.531-971.066,428.653-970.553Zm-13.912-.732c0,.366-.513.732-1.1.732s-1.1-.366-1.1-.732c0-.439.513-.732,1.1-.732S414.741-971.725,414.741-971.286Zm-.146,14.058c-.439,1.318-2.05,1.538-2.05.293a1.156,1.156,0,0,1,1.172-1.171C414.375-958.106,414.741-957.74,414.595-957.227Z" transform="translate(-130.633 1431.083)"/>
    <path id="Path_12" data-name="Path 12" d="M310.6-1026.634a6.625,6.625,0,0,0,2.489,1.391c3.222,1.318,5.125,4.173,4.54,6.663-.659,2.563-3,4.759-5.125,4.759-2.05,0-5.565-3.295-5.565-5.2a1.294,1.294,0,0,0-1.464-1.391c-2.343,0-1.757,2.782,1.245,5.711,2.489,2.49,2.709,3.075,2.782,6.883,0,2.27.366,4.54.805,4.979,1.318,1.318,6,2.2,12.081,2.2,4.979,0,6.15-.293,10.836-2.636,5.784-2.856,6.663-4.32,5.272-8.567-1.684-4.906-6.59-7.908-13.546-8.054-3.222-.146-4.173-.439-4.54-1.464a4.411,4.411,0,0,0-1.83-2.05c-.805-.366-1.245-1.025-1.1-1.318.513-.805-2.856-2.27-5.052-2.27C311.4-1027,310.6-1026.854,310.6-1026.634Zm8.786,16.108a1.126,1.126,0,0,1-1.1,1.1,1.126,1.126,0,0,1-1.1-1.1,1.126,1.126,0,0,1,1.1-1.1A1.126,1.126,0,0,1,319.385-1010.526Zm14.644,0a1.126,1.126,0,0,1-1.1,1.1c-1.172,0-1.464-.879-.586-1.684C333.15-1011.99,334.029-1011.7,334.029-1010.526Z" transform="translate(-108.495 1427.49)"/>
    <path id="Path_13" data-name="Path 13" d="M567.613-973.372c-4.173.293-4.613.439-4.613,1.9,0,2.929,1.684,4.173,8.274,6.15,7.4,2.2,13.765,7.615,18.085,15.376l1.83,3.368,10.983,3.807c10.47,3.661,25.7,10.251,31.411,13.619l2.636,1.538v-1.83a3.544,3.544,0,0,1,1.757-2.929c3.734-2.489,3.368-11.349-.732-17.426-1.9-2.855-2.343-4.027-1.757-4.759a11.915,11.915,0,0,0,1.172-4.833c.293-3,.073-4.393-1.025-6.15-1.318-2.05-2.123-2.416-9.006-3.881-4.174-.805-11.2-2.05-15.669-2.636C602.9-973.152,576.253-973.958,567.613-973.372Zm11.349,5.491c-.439,1.318-2.05,1.538-2.05.293a1.156,1.156,0,0,1,1.172-1.171C578.742-968.759,579.108-968.393,578.962-967.881Zm14.2.22a1.171,1.171,0,0,1-.805.952c-.439.146-.805-.293-.805-.952s.366-1.1.805-.952A1.171,1.171,0,0,1,593.166-967.661Zm14.863-.439c.513.879-.879,1.757-1.831,1.172-.805-.513-.293-1.83.732-1.83A1.613,1.613,0,0,1,608.03-968.1Zm14.5-.22c.805.805-.22,1.757-1.318,1.318-.586-.293-.879-.732-.659-1.1A1.169,1.169,0,0,1,622.527-968.32ZM593.532-953.6c.146.439-.22.952-.879,1.172-.732.366-1.1,0-1.1-1.025C591.555-954.994,593.093-955.067,593.532-953.6Zm14.131.293c0,1.318-.146,1.391-1.1.659-1.1-.879-.879-2.2.439-2.2C607.371-954.848,607.664-954.115,607.664-953.31Zm14.717.146c-.952.952-1.9.22-1.172-.879a.938.938,0,0,1,1.245-.366C622.893-954.115,622.893-953.676,622.381-953.164Zm.293,13.619c.513.879-.879,1.757-1.83,1.172-.805-.513-.293-1.83.732-1.83A1.613,1.613,0,0,1,622.674-939.545Zm14.278.439c0,.586-.293,1.1-.732,1.1-.366,0-.732-.513-.732-1.1s.366-1.1.732-1.1C636.658-940.2,636.951-939.691,636.951-939.105Z" transform="translate(-177.849 1413.18)"/>
    <path id="Path_14" data-name="Path 14" d="M600.59-929.975c0,.586.22,1.245.586,1.391.293.22.366,3.368.146,7.1s-.073,6.883.22,7.1c.366.22.146.879-.513,1.538a10.019,10.019,0,0,0-1.611,3.441,52.8,52.8,0,0,1-2.929,7.1,26.123,26.123,0,0,0-2.49,6.077c0,1.538,2.123,2.27,9.445,3.295,11.642,1.611,22.771,6.809,35.951,16.84,3.148,2.416,6.077,4.393,6.443,4.393a2.574,2.574,0,0,0,1.538-1.025c1.684-2.05-9.079-13.985-15.083-16.767-.952-.439-1.684-.952-1.684-1.172s1.9-1.318,4.247-2.416c6.736-3.148,13.546-10.91,12.3-14.131-.659-1.83-2.563-2.123-4.1-.732-1.757,1.611-1.831,1.025-.293-1.977,1.391-2.709,2.123-2.05-9.958-8.2C624.532-922.287,603.3-931,601.4-931A.927.927,0,0,0,600.59-929.975Zm15.742,15.889c.732,1.1-.073,1.684-1.464,1.1-.659-.22-.952-.732-.732-1.172A1.185,1.185,0,0,1,616.332-914.086Zm14.424.293a1.171,1.171,0,0,1-.805.952c-.439.146-.805-.293-.805-.952s.366-1.1.805-.952A1.171,1.171,0,0,1,630.756-913.794ZM601.468-899.15a1.171,1.171,0,0,1-.805.952c-.439.146-.805-.293-.805-.952s.366-1.1.805-.952A1.171,1.171,0,0,1,601.468-899.15Zm14.863-.439c.513.879-.879,1.757-1.83,1.172-.805-.512-.293-1.83.732-1.83A1.613,1.613,0,0,1,616.332-899.589Zm14.424.439a1.171,1.171,0,0,1-.805.952c-.439.146-.805-.293-.805-.952s.366-1.1.805-.952A1.171,1.171,0,0,1,630.756-899.15Zm.22,13.472c.513.879-.879,1.757-1.831,1.172-.805-.512-.293-1.83.732-1.83A1.613,1.613,0,0,1,630.976-885.677Z" transform="translate(-186.151 1401.78)"/>
    <path id="Path_15" data-name="Path 15" d="M257.877-889.958c-7.908,4.32-34.486,14.644-51.253,19.916-11.5,3.588-12.154,3.881-13.326,6.224-2.929,5.638-.952,12.447,3.881,13.472,2.123.513,2.27.659,1.9,3.222-.366,1.977-.293,2.343.293,1.318a2.484,2.484,0,0,1,1.464-1.245c.439,0,3.295-1.757,6.37-3.954a286.223,286.223,0,0,1,41.076-23.21l7.688-3.441,1.611-4.833c.952-2.709,1.391-4.979.952-5.2-1.025-.659-.805-1.83.366-1.83a2.062,2.062,0,0,0,1.538-.732C261.026-891.276,260.074-891.129,257.877-889.958Zm-27.091,15.449a1.126,1.126,0,0,1-1.1,1.1c-1.172,0-1.464-.879-.586-1.684C229.908-875.973,230.786-875.68,230.786-874.509Zm14.644.439c0,.366-.513.659-1.1.659-1.1,0-1.464-.879-.659-1.684C244.259-875.68,245.43-875.021,245.43-874.069ZM201.5-859.792c0,.659-.366,1.025-.879.879-1.318-.439-1.538-2.05-.293-2.05A1.156,1.156,0,0,1,201.5-859.792Zm14.644,0c0,.659-.366,1.025-.879.879-1.318-.439-1.538-2.05-.293-2.05A1.156,1.156,0,0,1,216.143-859.792Z" transform="translate(-78.472 1391.051)"/>
    <path id="Path_16" data-name="Path 16" d="M255.379-866.226c-.586.366-5.931,3.075-11.861,5.931-8.2,4.027-10.836,5.638-10.836,6.736,0,1.025-.366,1.245-1.464.879-.879-.293-2.709.293-4.906,1.538-5.052,2.929-18.232,11.715-23.064,15.449-4.027,3.075-4.247,3.441-4.247,6.37,0,2.856.952,4.832,2.416,4.832.293,0,.366-.366.073-.879-.366-.586,0-.659,1.1-.366,1.245.293,1.83,0,2.416-1.318.659-1.391,1.1-1.611,2.123-1.1,1.977,1.1,5.491.879,6.516-.366a3.141,3.141,0,0,1,1.611-1.1c.366,0-.952,1.83-2.929,4.1a47.6,47.6,0,0,0-5.418,7.322c-1.464,2.856-1.538,3.368-.586,3.954,3.295,2.123,5.931.439,14.131-8.933,8.64-9.958,20.575-17.939,30.9-20.648,2.416-.586,4.759-1.611,5.125-2.2.513-.659.586-3,.293-6.443a39.365,39.365,0,0,1,.513-12.887C257.648-867.032,257.136-867.251,255.379-866.226Zm-8.054,12.886c0,.659-.366,1.025-.879.879-1.318-.439-1.538-2.05-.293-2.05A1.156,1.156,0,0,1,247.325-853.34Zm-29.434,14.131c.22.586-.073.879-.659.659a2.092,2.092,0,0,1-1.245-1.245c-.22-.586.073-.879.659-.659A2.092,2.092,0,0,1,217.891-839.208Zm14.79-.293a1.126,1.126,0,0,1-1.1,1.1c-1.172,0-1.464-.879-.586-1.684C231.8-840.966,232.681-840.673,232.681-839.5Zm-14.79,14.351a1.085,1.085,0,0,1-.952.732,1.085,1.085,0,0,1-.952-.732c-.146-.439.293-.805.952-.805S218.037-825.59,217.891-825.15Z" transform="translate(-80.367 1384.599)"/>
  </g>
</svg>
